<svg id="instagram" xmlns="http://www.w3.org/2000/svg" width="13.997" height="14" viewBox="0 0 13.997 14">
  <path id="Path_10442" data-name="Path 10442" d="M14.411,4.116a5.116,5.116,0,0,0-.325-1.7A3.586,3.586,0,0,0,12.037.369a5.129,5.129,0,0,0-1.7-.325C9.589.008,9.351,0,7.451,0S5.312.008,4.565.041a5.117,5.117,0,0,0-1.7.325,3.416,3.416,0,0,0-1.242.81A3.447,3.447,0,0,0,.818,2.415a5.129,5.129,0,0,0-.325,1.7C.457,4.863.449,5.1.449,7S.457,9.14.49,9.887a5.115,5.115,0,0,0,.326,1.7,3.586,3.586,0,0,0,2.048,2.048,5.13,5.13,0,0,0,1.7.325c.747.033.985.041,2.885.041s2.139-.008,2.885-.041a5.114,5.114,0,0,0,1.7-.325,3.581,3.581,0,0,0,2.049-2.048,5.133,5.133,0,0,0,.325-1.7c.033-.747.041-.985.041-2.885S14.444,4.863,14.411,4.116ZM13.15,9.832a3.837,3.837,0,0,1-.241,1.3A2.322,2.322,0,0,1,11.58,12.46a3.851,3.851,0,0,1-1.3.241c-.738.033-.96.041-2.828.041s-2.092-.008-2.828-.041a3.835,3.835,0,0,1-1.3-.241,2.154,2.154,0,0,1-.8-.522,2.177,2.177,0,0,1-.522-.8,3.852,3.852,0,0,1-.241-1.3c-.033-.738-.041-.96-.041-2.828s.008-2.092.041-2.828A3.835,3.835,0,0,1,2,2.88a2.128,2.128,0,0,1,.525-.8,2.173,2.173,0,0,1,.8-.522,3.854,3.854,0,0,1,1.3-.241c.738-.033.96-.041,2.828-.041s2.092.008,2.828.041a3.837,3.837,0,0,1,1.3.241,2.153,2.153,0,0,1,.8.522,2.176,2.176,0,0,1,.522.8,3.853,3.853,0,0,1,.241,1.3c.033.738.041.96.041,2.828S13.183,9.094,13.15,9.832Zm0,0" transform="translate(-0.449 0)" fill="#761571"/>
  <path id="Path_10443" data-name="Path 10443" d="M128.546,124.5a3.6,3.6,0,1,0,3.6,3.6A3.6,3.6,0,0,0,128.546,124.5Zm0,5.929a2.333,2.333,0,1,1,2.333-2.333A2.333,2.333,0,0,1,128.546,130.429Zm0,0" transform="translate(-121.544 -121.095)" fill="#761571"/>
  <path id="Path_10444" data-name="Path 10444" d="M364.129,89.441a.84.84,0,1,1-.84-.84A.84.84,0,0,1,364.129,89.441Zm0,0" transform="translate(-352.549 -86.178)" fill="#761571"/>
</svg>
