<svg id="linkedin_1_" data-name="linkedin (1)" xmlns="http://www.w3.org/2000/svg" width="14" height="14" viewBox="0 0 14 14">
  <path id="Path_10438" data-name="Path 10438" d="M17.534,17.156h0V12.021c0-2.512-.541-4.447-3.477-4.447a3.048,3.048,0,0,0-2.746,1.509h-.041V7.809H8.489v9.347h2.9V12.527c0-1.219.231-2.4,1.74-2.4,1.487,0,1.509,1.391,1.509,2.475v4.551Z" transform="translate(-3.537 -3.156)" fill="#761571"/>
  <path id="Path_10439" data-name="Path 10439" d="M.4,7.977H3.3v9.347H.4Z" transform="translate(-0.165 -3.324)" fill="#761571"/>
  <path id="Path_10440" data-name="Path 10440" d="M1.681,0A1.689,1.689,0,1,0,3.362,1.681,1.682,1.682,0,0,0,1.681,0Z" fill="#761571"/>
</svg>
