<svg xmlns="http://www.w3.org/2000/svg" width="12.988" height="15.508" viewBox="0 0 12.988 15.508">
  <g id="_01_align_center" data-name="01 align center" transform="translate(-1.909 0.091)">
    <path id="Path_2345" data-name="Path 2345" d="M8.4,15.417l-.45-.386c-.621-.52-6.043-5.2-6.043-8.628A6.494,6.494,0,1,1,14.9,6.4c0,3.425-5.422,8.108-6.041,8.631Zm0-14.1A5.1,5.1,0,0,0,3.313,6.4c0,2.152,3.336,5.59,5.09,7.163,1.754-1.574,5.09-5.014,5.09-7.163A5.1,5.1,0,0,0,8.4,1.313Z" transform="translate(0)" fill="#761571"/>
    <path id="Path_2346" data-name="Path 2346" d="M10.574,11.148a2.574,2.574,0,1,1,2.574-2.574A2.574,2.574,0,0,1,10.574,11.148Zm0-3.861a1.287,1.287,0,1,0,1.287,1.287A1.287,1.287,0,0,0,10.574,7.287Z" transform="translate(-2.171 -2.171)" fill="#761571"/>
  </g>
</svg>
