<svg xmlns="http://www.w3.org/2000/svg" width="16" height="16" viewBox="0 0 12.988 12.988">
  <path id="telephone" d="M.513,6.6a.507.507,0,0,0,.507-.507A5.079,5.079,0,0,1,6.093,1.016.507.507,0,1,0,6.093,0,6.116,6.116,0,0,0,.006,6.089.507.507,0,0,0,.513,6.6Zm3.551-.507A2.031,2.031,0,0,1,6.093,4.059a.507.507,0,1,1,0,1.015A1.016,1.016,0,0,0,5.079,6.089a.507.507,0,1,1-1.015,0Zm-2.029,0A4.063,4.063,0,0,1,6.093,2.03a.507.507,0,1,1,0,1.015A3.047,3.047,0,0,0,3.049,6.089a.507.507,0,1,1-1.015,0Zm2.018,6.9a.507.507,0,0,1-.347-.148L1.879,11.013a.507.507,0,0,1,0-.717L4.638,7.537a.507.507,0,0,1,.717,0l.688.688a6.371,6.371,0,0,0,2.189-2.2l-.681-.681a.51.51,0,0,1,0-.717l2.775-2.775a.507.507,0,0,1,.717,0l1.8,1.8a.507.507,0,0,1,.149.35C13,7.718,7.958,12.941,4.075,12.988ZM10.684,2.926,8.627,4.983l.565.565a.507.507,0,0,1,.132.489A6.564,6.564,0,0,1,6.06,9.318a.507.507,0,0,1-.49-.131L5,8.613,2.955,10.654l1.309,1.309c2.813-.165,7.338-4.076,7.7-7.756Z" transform="translate(-0.005)" fill="#761571"/>
</svg>
