<svg xmlns="http://www.w3.org/2000/svg" width="26" height="26" viewBox="0 0 60.17 70.199">
  <path id="Icon_metro-language" data-name="Icon metro-language" d="M30.389,44.432q-.039.118-.49-.02t-1.234-.45l-.783-.353a23.471,23.471,0,0,1-3.408-1.919q-.274-.2-1.606-1.234T21.379,39.34a66.736,66.736,0,0,1-5.249,7.09,29.121,29.121,0,0,1-4.113,4.309,3.1,3.1,0,0,1-.764.157,1.509,1.509,0,0,1-.725,0q.235-.157,3.212-3.6.823-.94,3.349-4.5a54.767,54.767,0,0,0,3.075-4.622q.666-1.175,2-3.859a30.533,30.533,0,0,0,1.41-3.036,32.192,32.192,0,0,0-4.309,1.293q-.313.078-1.077.294t-1.351.372a6.715,6.715,0,0,0-.666.2.666.666,0,0,0-.078.411.869.869,0,0,1-.039.372q-.2.392-1.214.588A3.159,3.159,0,0,1,13,34.8a1.652,1.652,0,0,1-1.1-.823,1.993,1.993,0,0,1-.2-.9,7.569,7.569,0,0,1,.96-.2,11.7,11.7,0,0,0,1.156-.235q2.272-.627,4.113-1.254,3.917-1.371,4-1.371a8.692,8.692,0,0,0,1.684-.764,17.717,17.717,0,0,1,1.724-.842q.353-.118.842-.313t.568-.215a.525.525,0,0,1,.235.02,4.458,4.458,0,0,1-.039,1.293,8.341,8.341,0,0,1-.49,1.058q-.49.979-1.038,2.1t-.666,1.312a58.753,58.753,0,0,1-3.016,5.132l2.507,1.1q.47.235,2.918,1.254t2.644,1.1q.157.039.411,1a2.968,2.968,0,0,1,.176,1.195ZM22.359,25.394a1.589,1.589,0,0,1-.157,1.1,3.551,3.551,0,0,1-1.959,1.489,6.289,6.289,0,0,1-2.351.47,3.242,3.242,0,0,1-1.919-1.018,2.946,2.946,0,0,1-.705-1.606l.039-.118a1.676,1.676,0,0,0,.764.2,3.407,3.407,0,0,0,1.038,0q.392-.078,2.272-.627a11.185,11.185,0,0,1,2.155-.548.773.773,0,0,1,.823.666ZM49.7,30.447,52.17,39.34l-5.445-1.645ZM6.3,61.786,33.484,52.7V12.271L6.3,21.4V61.786ZM54.912,49.368l4,1.214-7.09-25.737L47.9,23.631l-8.462,21,4,1.214L45.2,41.533l8.266,2.546Zm-19.7-37.685,22.446,7.208V4.005ZM47.39,63.51l6.189.509-2.115,6.268L49.9,67.7a29.039,29.039,0,0,1-10.812,4.231,18.775,18.775,0,0,1-3.565.47H32.23a26.476,26.476,0,0,1-7.815-1.528,26.013,26.013,0,0,1-7.188-3.33.816.816,0,0,1-.313-.627.758.758,0,0,1,.2-.529.656.656,0,0,1,.509-.215,2.205,2.205,0,0,1,.705.294q.548.294,1.195.646t.8.431a34.707,34.707,0,0,0,6.248,2.409,22.826,22.826,0,0,0,6.17.96,33.429,33.429,0,0,0,6.542-.568,32.286,32.286,0,0,0,6.15-1.978q.588-.274,1.195-.607t1.332-.744q.725-.411,1.116-.646ZM64.94,21.242V63.51L34.62,53.873q-.548.235-14.69,4.995T5.514,63.627a.709.709,0,0,1-.705-.509A.3.3,0,0,0,4.77,63V20.772a1.749,1.749,0,0,1,.157-.392,1.762,1.762,0,0,1,.784-.431q4.152-1.371,5.837-1.959V2.948L33.406,10.7q.078,0,6.287-2.155T52.072,4.3q6.17-2.1,6.327-2.1.784,0,.784.823V19.4Z" transform="translate(-4.77 -2.203)" fill="#000"/>
</svg>
