<svg xmlns="http://www.w3.org/2000/svg" width="14" height="9.917" viewBox="0 0 14 9.917">
  <path id="youtube" d="M13.69,4.917l.017.114A1.775,1.775,0,0,0,12.5,3.8l-.012,0a41.49,41.49,0,0,0-5.483-.3,40.577,40.577,0,0,0-5.483.3A1.776,1.776,0,0,0,.307,5.019l0,.012A19.515,19.515,0,0,0,.322,12L.3,11.885a1.775,1.775,0,0,0,1.206,1.232l.012,0a41.4,41.4,0,0,0,5.483.3,41.5,41.5,0,0,0,5.483-.3A1.775,1.775,0,0,0,13.705,11.9l0-.012A18.238,18.238,0,0,0,14,8.59c0-.043,0-.086,0-.129s0-.087,0-.134a18.816,18.816,0,0,0-.31-3.41ZM5.6,10.588V6.334L9.26,8.464Z" transform="translate(0 -3.5)" fill="#761571"/>
</svg>
