<?xml version="1.0" encoding="UTF-8" standalone="no"?>
<svg
   version="1.1"
   width="1100"
   height="300"
   viewBox="0 0 1100 300"
   xml:space="preserve"
   id="svg91"
   sodipodi:docname="logo_en.svg"
   inkscape:version="1.1 (c68e22c387, 2021-05-23)"
   xmlns:inkscape="http://www.inkscape.org/namespaces/inkscape"
   xmlns:sodipodi="http://sodipodi.sourceforge.net/DTD/sodipodi-0.dtd"
   xmlns="http://www.w3.org/2000/svg"
   xmlns:svg="http://www.w3.org/2000/svg"><sodipodi:namedview
   id="namedview93"
   pagecolor="#ffffff"
   bordercolor="#666666"
   borderopacity="1.0"
   inkscape:pageshadow="2"
   inkscape:pageopacity="0.0"
   inkscape:pagecheckerboard="0"
   showgrid="false"
   inkscape:zoom="0.76464844"
   inkscape:cx="526.38569"
   inkscape:cy="302.75351"
   inkscape:window-width="1920"
   inkscape:window-height="1001"
   inkscape:window-x="-9"
   inkscape:window-y="-9"
   inkscape:window-maximized="1"
   inkscape:current-layer="svg91"
   width="1279px" />
<desc
   id="desc52">Created with Fabric.js 3.6.3</desc>
<defs
   id="defs54">
</defs>
<g
   transform="matrix(1.6439824,0,0,0.56876378,549.88206,149.84224)"
   id="background-logo"
   inkscape:export-filename="C:\Users\Fadi\Downloads\background-logo.png"
   inkscape:export-xdpi="96"
   inkscape:export-ydpi="96">
<rect
   style="opacity:1;fill:#ffffff;fill-rule:nonzero;stroke:none;stroke-width:1;stroke-linecap:butt;stroke-linejoin:miter;stroke-miterlimit:4;stroke-dasharray:none;stroke-dashoffset:0"
   paint-order="stroke"
   x="-325"
   y="-260"
   rx="0"
   ry="0"
   width="650"
   height="520"
   id="rect56" />
</g>
<g
   transform="matrix(1.969278,0,0,1.969278,717.55472,148.66741)"
   id="text-logo-path">
<linearGradient
   id="SVGID_9_389308"
   gradientUnits="userSpaceOnUse"
   gradientTransform="translate(7.91,-52.54)"
   x1="0"
   y1="0"
   x2="0"
   y2="89">
<stop
   offset="0%"
   style="stop-color:rgb(91,36,122);stop-opacity: 1"
   id="stop59" />
<stop
   offset="100%"
   style="stop-color:rgb(27,206,223);stop-opacity: 1"
   id="stop61" />
</linearGradient>
<path
   style="opacity:1;fill:url(#SVGID_9_389308);fill-rule:nonzero;stroke:#ffffff;stroke-width:0;stroke-linecap:butt;stroke-linejoin:miter;stroke-miterlimit:10;stroke-dasharray:none;stroke-dashoffset:0"
   paint-order="stroke"
   transform="translate(-179.45,25.67)"
   d="M 13.42,0 H 7.91 v -51.34 h 21.72 v 4.74 H 13.42 v 18.17 h 13.04 v 4.75 H 13.42 Z m 25.66,-9.88 v 0 -7.9 q 0,-11.07 11.38,-11.07 v 0 h 9.14 v -12.93 q 0,-2.85 -1.82,-4.43 -1.81,-1.58 -5.36,-1.58 v 0 q -7.02,0 -7.02,6.01 v 0 4.63 h -5.55 v -4.32 q 0,-5.28 3.12,-8.18 3.13,-2.89 9.45,-2.89 6.33,0 9.53,2.89 3.2,2.9 3.2,8.18 v 0 V 0 H 62.76 L 60.72,-5.05 Q 59.06,-2.2 56.38,-0.5 53.7,1.2 50.46,1.2 v 0 Q 39.08,1.2 39.08,-9.88 Z m 5.51,-7.9 v 7.9 q 0,3.01 1.27,4.67 1.28,1.66 4.6,1.66 3.31,0 6.15,-2.56 2.83,-2.57 2.99,-5.12 v 0 -12.88 h -9.14 q -3.32,0 -4.6,1.66 -1.27,1.66 -1.27,4.67 z M 92.89,0 H 80.16 v -51.34 h 12.73 q 6.17,0 9.35,2.91 3.18,2.91 3.18,8.16 v 0 29.2 q 0,5.28 -3.14,8.18 Q 99.14,0 92.89,0 Z m -7.22,-46.6 v 41.86 h 7.22 q 7.02,0 7.02,-6.33 v 0 -29.2 q 0,-3.01 -1.82,-4.67 -1.81,-1.66 -5.2,-1.66 v 0 z M 125.56,0 h -5.52 v -51.34 h 5.52 z m 45.02,0 h -13.47 v -4.74 h 3.98 V -46.6 h -3.98 v -4.74 h 13.47 v 4.74 h -3.98 v 41.86 h 3.98 z m 26.11,0 h -12.73 v -51.34 h 12.73 q 6.17,0 9.35,2.91 3.19,2.91 3.19,8.16 v 0 29.2 q 0,5.28 -3.15,8.18 Q 202.94,0 196.69,0 Z m -7.21,-46.6 v 41.86 h 7.21 q 7.02,0 7.02,-6.33 v 0 -29.2 q 0,-3.01 -1.81,-4.67 -1.82,-1.66 -5.21,-1.66 v 0 z m 33.17,36.72 v 0 -31.59 q 0,-5.28 3.36,-8.18 3.35,-2.89 10.03,-2.89 6.67,0 10.06,2.89 3.4,2.9 3.4,8.18 v 0 31.59 q 0,5.29 -3.36,8.18 -3.35,2.9 -10.03,2.9 -6.67,0 -10.07,-2.9 -3.39,-2.89 -3.39,-8.18 z m 5.52,-31.59 v 31.59 q 0,6.33 7.9,6.33 7.91,0 7.91,-6.33 v 0 -31.59 q 0,-6.32 -7.91,-6.32 -7.9,0 -7.9,6.32 z m 35.14,31.59 v 0 -41.46 h 5.55 v 41.46 q 0,3.01 1.29,4.67 1.3,1.66 4.77,1.66 3.47,0 6.4,-2.68 2.93,-2.68 2.93,-5.23 v 0 -39.88 h 5.52 V 0 h -2.35 l -2.05,-5.05 q -1.73,2.85 -4.47,4.55 -2.74,1.7 -5.98,1.7 v 0 q -11.61,0 -11.61,-11.08 z m 55,9.88 h -12.73 v -51.34 h 12.73 q 6.18,0 9.36,2.91 3.18,2.91 3.18,8.16 v 0 29.2 q 0,5.28 -3.14,8.18 Q 324.56,0 318.31,0 Z m -7.21,-46.6 v 41.86 h 7.21 q 7.02,0 7.02,-6.33 v 0 -29.2 q 0,-3.01 -1.81,-4.67 -1.81,-1.66 -5.21,-1.66 v 0 z M 350.99,0 h -5.52 v -51.34 h 5.52 z"
   stroke-linecap="round"
   id="path64" />
</g>
<g
   transform="matrix(1.1526172,0,0,1.1526172,183.53456,148.87234)"
   id="logo-logo">
<g
   paint-order="stroke"
   id="g80">
		<g
   transform="scale(1.2461168)"
   id="g78">
<g
   paint-order="stroke"
   id="g76">
		<g
   id="g74">
<linearGradient
   id="SVGID_1_389309"
   gradientUnits="userSpaceOnUse"
   gradientTransform="translate(-100,-100)"
   x1="0"
   y1="0"
   x2="0"
   y2="201">
<stop
   offset="0%"
   style="stop-color:rgb(91,36,122);stop-opacity: 1"
   id="stop67" />
<stop
   offset="100%"
   style="stop-color:rgb(27,206,223);stop-opacity: 1"
   id="stop69" />
</linearGradient>
<polygon
   style="opacity:1;fill:url(#SVGID_1_389309);fill-rule:nonzero;stroke:none;stroke-width:1;stroke-linecap:butt;stroke-linejoin:miter;stroke-miterlimit:4;stroke-dasharray:none;stroke-dashoffset:0"
   paint-order="stroke"
   points="95.12,-95.12 -95.12,-95.12 -95.12,0 -100,0 -100,-100 100,-100 100,100 0,100 0,95.12 95.12,95.12 "
   id="polygon72" />
</g>
</g>
</g>
</g>
</g>
<g
   transform="matrix(1.969278,0,0,1.969278,187.74476,147.38423)"
   id="tagline-3a78d944-c0db-44d4-8ad5-60158c925687-logo-path">
<linearGradient
   id="SVGID_13_389311"
   gradientUnits="userSpaceOnUse"
   gradientTransform="translate(13.91,-90.34)"
   x1="0"
   y1="0"
   x2="0"
   y2="157">
<stop
   offset="0%"
   style="stop-color:rgb(91,36,122);stop-opacity: 1"
   id="stop83" />
<stop
   offset="100%"
   style="stop-color:rgb(27,206,223);stop-opacity: 1"
   id="stop85" />
</linearGradient>
<path
   style="opacity:1;fill:url(#SVGID_13_389311);fill-rule:nonzero;stroke:#ffffff;stroke-width:0;stroke-linecap:butt;stroke-linejoin:miter;stroke-miterlimit:4;stroke-dasharray:none;stroke-dashoffset:0"
   paint-order="stroke"
   transform="translate(-52.465,45.17)"
   d="m 23.62,0 h -9.71 v -90.34 h 38.22 v 8.35 H 23.62 v 31.97 h 22.94 v 8.35 H 23.62 Z m 67.4,0 H 67.33 v -8.35 h 6.99 v -73.64 h -6.99 v -8.35 h 23.69 v 8.35 h -7 v 73.64 h 7 z"
   stroke-linecap="round"
   id="path88" />
</g>
</svg>
